<mxfile host="app.diagrams.net" modified="2020-11-29T12:53:16.885Z" agent="5.0 (Windows NT 10.0; Win64; x64) AppleWebKit/537.36 (KHTML, like Gecko) Chrome/86.0.4240.111 Safari/537.36" etag="WxTpTAOy2_fvqStO-Sd4" version="13.10.4" type="github">
  <diagram id="uYN0qk-6O3mnFLbHshm6" name="Page-1">
    <mxGraphModel dx="1609" dy="1684" grid="1" gridSize="10" guides="1" tooltips="1" connect="1" arrows="1" fold="1" page="1" pageScale="1" pageWidth="827" pageHeight="1169" math="0" shadow="0">
      <root>
        <mxCell id="0" />
        <mxCell id="1" parent="0" />
        <mxCell id="nOZPVLmojF98c1AM6i1F-1" value="用户" style="rounded=0;whiteSpace=wrap;html=1;" parent="1" vertex="1">
          <mxGeometry x="-790" y="-1010" width="120" height="60" as="geometry" />
        </mxCell>
        <mxCell id="nOZPVLmojF98c1AM6i1F-3" value="cdn" style="rounded=0;whiteSpace=wrap;html=1;" parent="1" vertex="1">
          <mxGeometry x="-790" y="-880" width="120" height="60" as="geometry" />
        </mxCell>
        <mxCell id="nOZPVLmojF98c1AM6i1F-5" value="web服务" style="rounded=0;whiteSpace=wrap;html=1;" parent="1" vertex="1">
          <mxGeometry x="-790" y="-740" width="120" height="60" as="geometry" />
        </mxCell>
        <mxCell id="nOZPVLmojF98c1AM6i1F-9" value="高防" style="rounded=0;whiteSpace=wrap;html=1;" parent="1" vertex="1">
          <mxGeometry x="-10" y="-1000" width="120" height="60" as="geometry" />
        </mxCell>
        <mxCell id="nOZPVLmojF98c1AM6i1F-10" value="CLB" style="rounded=0;whiteSpace=wrap;html=1;" parent="1" vertex="1">
          <mxGeometry x="-10" y="-870" width="120" height="60" as="geometry" />
        </mxCell>
        <mxCell id="nOZPVLmojF98c1AM6i1F-12" value="直播api服务" style="rounded=0;whiteSpace=wrap;html=1;" parent="1" vertex="1">
          <mxGeometry x="-160" y="-740" width="120" height="60" as="geometry" />
        </mxCell>
        <mxCell id="nOZPVLmojF98c1AM6i1F-14" value="直播api服务" style="rounded=0;whiteSpace=wrap;html=1;" parent="1" vertex="1">
          <mxGeometry x="-10" y="-740" width="120" height="60" as="geometry" />
        </mxCell>
        <mxCell id="nOZPVLmojF98c1AM6i1F-16" value="" style="endArrow=none;dashed=1;html=1;entryX=0.5;entryY=1;entryDx=0;entryDy=0;exitX=0.5;exitY=0;exitDx=0;exitDy=0;" parent="1" source="nOZPVLmojF98c1AM6i1F-14" target="nOZPVLmojF98c1AM6i1F-10" edge="1">
          <mxGeometry width="50" height="50" relative="1" as="geometry">
            <mxPoint x="-130" y="-720" as="sourcePoint" />
            <mxPoint x="-80" y="-770" as="targetPoint" />
          </mxGeometry>
        </mxCell>
        <mxCell id="nOZPVLmojF98c1AM6i1F-17" value="直播api服务" style="rounded=0;whiteSpace=wrap;html=1;" parent="1" vertex="1">
          <mxGeometry x="140" y="-740" width="120" height="60" as="geometry" />
        </mxCell>
        <mxCell id="nOZPVLmojF98c1AM6i1F-18" value="" style="endArrow=none;dashed=1;html=1;exitX=0.5;exitY=0;exitDx=0;exitDy=0;entryX=0.5;entryY=1;entryDx=0;entryDy=0;" parent="1" source="nOZPVLmojF98c1AM6i1F-17" target="nOZPVLmojF98c1AM6i1F-10" edge="1">
          <mxGeometry width="50" height="50" relative="1" as="geometry">
            <mxPoint x="60" y="-730" as="sourcePoint" />
            <mxPoint x="60" y="-800" as="targetPoint" />
          </mxGeometry>
        </mxCell>
        <mxCell id="nOZPVLmojF98c1AM6i1F-19" value="高防" style="rounded=0;whiteSpace=wrap;html=1;" parent="1" vertex="1">
          <mxGeometry x="490" y="-1000" width="120" height="60" as="geometry" />
        </mxCell>
        <mxCell id="nOZPVLmojF98c1AM6i1F-20" value="CLB" style="rounded=0;whiteSpace=wrap;html=1;" parent="1" vertex="1">
          <mxGeometry x="490" y="-870" width="120" height="60" as="geometry" />
        </mxCell>
        <mxCell id="nOZPVLmojF98c1AM6i1F-22" value="直播api服务" style="rounded=0;whiteSpace=wrap;html=1;" parent="1" vertex="1">
          <mxGeometry x="340" y="-740" width="120" height="60" as="geometry" />
        </mxCell>
        <mxCell id="nOZPVLmojF98c1AM6i1F-24" value="直播api服务" style="rounded=0;whiteSpace=wrap;html=1;" parent="1" vertex="1">
          <mxGeometry x="490" y="-740" width="120" height="60" as="geometry" />
        </mxCell>
        <mxCell id="nOZPVLmojF98c1AM6i1F-25" value="" style="endArrow=none;dashed=1;html=1;entryX=0.5;entryY=1;entryDx=0;entryDy=0;exitX=0.5;exitY=0;exitDx=0;exitDy=0;" parent="1" source="nOZPVLmojF98c1AM6i1F-24" target="nOZPVLmojF98c1AM6i1F-20" edge="1">
          <mxGeometry width="50" height="50" relative="1" as="geometry">
            <mxPoint x="370" y="-720" as="sourcePoint" />
            <mxPoint x="420" y="-770" as="targetPoint" />
          </mxGeometry>
        </mxCell>
        <mxCell id="nOZPVLmojF98c1AM6i1F-26" value="直播api服务" style="rounded=0;whiteSpace=wrap;html=1;" parent="1" vertex="1">
          <mxGeometry x="640" y="-740" width="120" height="60" as="geometry" />
        </mxCell>
        <mxCell id="nOZPVLmojF98c1AM6i1F-27" value="" style="endArrow=none;dashed=1;html=1;exitX=0.5;exitY=0;exitDx=0;exitDy=0;entryX=0.5;entryY=1;entryDx=0;entryDy=0;" parent="1" source="nOZPVLmojF98c1AM6i1F-26" target="nOZPVLmojF98c1AM6i1F-20" edge="1">
          <mxGeometry width="50" height="50" relative="1" as="geometry">
            <mxPoint x="560" y="-730" as="sourcePoint" />
            <mxPoint x="560" y="-800" as="targetPoint" />
          </mxGeometry>
        </mxCell>
        <mxCell id="nOZPVLmojF98c1AM6i1F-28" value="mysql&amp;nbsp;Middleware" style="rounded=0;whiteSpace=wrap;html=1;" parent="1" vertex="1">
          <mxGeometry x="-413" y="-440" width="120" height="99" as="geometry" />
        </mxCell>
        <mxCell id="nOZPVLmojF98c1AM6i1F-29" value="proxy" style="rounded=0;whiteSpace=wrap;html=1;" parent="1" vertex="1">
          <mxGeometry x="-20" y="-440" width="120" height="99" as="geometry" />
        </mxCell>
        <mxCell id="nOZPVLmojF98c1AM6i1F-37" value="" style="endArrow=classic;html=1;entryX=0.5;entryY=0;entryDx=0;entryDy=0;exitX=0.5;exitY=1;exitDx=0;exitDy=0;" parent="1" source="nOZPVLmojF98c1AM6i1F-1" target="nOZPVLmojF98c1AM6i1F-3" edge="1">
          <mxGeometry width="50" height="50" relative="1" as="geometry">
            <mxPoint x="-180" y="-590" as="sourcePoint" />
            <mxPoint x="-130" y="-640" as="targetPoint" />
          </mxGeometry>
        </mxCell>
        <mxCell id="nOZPVLmojF98c1AM6i1F-38" value="" style="endArrow=classic;html=1;exitX=0.5;exitY=1;exitDx=0;exitDy=0;entryX=0.5;entryY=0;entryDx=0;entryDy=0;" parent="1" source="nOZPVLmojF98c1AM6i1F-3" target="nOZPVLmojF98c1AM6i1F-5" edge="1">
          <mxGeometry width="50" height="50" relative="1" as="geometry">
            <mxPoint x="-760" y="-750" as="sourcePoint" />
            <mxPoint x="-580" y="-820" as="targetPoint" />
          </mxGeometry>
        </mxCell>
        <mxCell id="nOZPVLmojF98c1AM6i1F-39" value="" style="endArrow=classic;html=1;entryX=0.5;entryY=0;entryDx=0;entryDy=0;exitX=0.5;exitY=1;exitDx=0;exitDy=0;" parent="1" source="nOZPVLmojF98c1AM6i1F-9" target="nOZPVLmojF98c1AM6i1F-10" edge="1">
          <mxGeometry width="50" height="50" relative="1" as="geometry">
            <mxPoint x="-330" y="-940" as="sourcePoint" />
            <mxPoint x="-330" y="-870" as="targetPoint" />
          </mxGeometry>
        </mxCell>
        <mxCell id="nOZPVLmojF98c1AM6i1F-40" value="" style="endArrow=classic;html=1;exitX=0.5;exitY=1;exitDx=0;exitDy=0;entryX=0.5;entryY=0;entryDx=0;entryDy=0;" parent="1" source="nOZPVLmojF98c1AM6i1F-10" target="nOZPVLmojF98c1AM6i1F-12" edge="1">
          <mxGeometry width="50" height="50" relative="1" as="geometry">
            <mxPoint x="-180" y="-480" as="sourcePoint" />
            <mxPoint x="-130" y="-540" as="targetPoint" />
          </mxGeometry>
        </mxCell>
        <mxCell id="nOZPVLmojF98c1AM6i1F-41" value="" style="endArrow=classic;html=1;exitX=0.5;exitY=1;exitDx=0;exitDy=0;entryX=0.5;entryY=0;entryDx=0;entryDy=0;" parent="1" source="nOZPVLmojF98c1AM6i1F-20" target="nOZPVLmojF98c1AM6i1F-22" edge="1">
          <mxGeometry width="50" height="50" relative="1" as="geometry">
            <mxPoint x="380" y="-560" as="sourcePoint" />
            <mxPoint x="430" y="-610" as="targetPoint" />
          </mxGeometry>
        </mxCell>
        <mxCell id="nOZPVLmojF98c1AM6i1F-42" value="" style="endArrow=classic;html=1;exitX=0.5;exitY=1;exitDx=0;exitDy=0;entryX=0.5;entryY=0;entryDx=0;entryDy=0;" parent="1" source="nOZPVLmojF98c1AM6i1F-19" target="nOZPVLmojF98c1AM6i1F-20" edge="1">
          <mxGeometry width="50" height="50" relative="1" as="geometry">
            <mxPoint x="360" y="-880" as="sourcePoint" />
            <mxPoint x="410" y="-930" as="targetPoint" />
          </mxGeometry>
        </mxCell>
        <mxCell id="nOZPVLmojF98c1AM6i1F-43" value="" style="endArrow=classic;html=1;exitX=0.5;exitY=1;exitDx=0;exitDy=0;entryX=0.5;entryY=0;entryDx=0;entryDy=0;" parent="1" source="nOZPVLmojF98c1AM6i1F-12" target="nOZPVLmojF98c1AM6i1F-28" edge="1">
          <mxGeometry width="50" height="50" relative="1" as="geometry">
            <mxPoint x="50" y="-500" as="sourcePoint" />
            <mxPoint x="100" y="-550" as="targetPoint" />
          </mxGeometry>
        </mxCell>
        <mxCell id="nOZPVLmojF98c1AM6i1F-44" value="" style="endArrow=classic;html=1;exitX=0.5;exitY=1;exitDx=0;exitDy=0;entryX=0.5;entryY=0;entryDx=0;entryDy=0;" parent="1" source="nOZPVLmojF98c1AM6i1F-14" target="nOZPVLmojF98c1AM6i1F-28" edge="1">
          <mxGeometry width="50" height="50" relative="1" as="geometry">
            <mxPoint x="-90" y="-670" as="sourcePoint" />
            <mxPoint x="190" y="-430" as="targetPoint" />
          </mxGeometry>
        </mxCell>
        <mxCell id="nOZPVLmojF98c1AM6i1F-45" value="" style="endArrow=classic;html=1;exitX=0.5;exitY=1;exitDx=0;exitDy=0;entryX=0.5;entryY=0;entryDx=0;entryDy=0;" parent="1" source="nOZPVLmojF98c1AM6i1F-17" target="nOZPVLmojF98c1AM6i1F-28" edge="1">
          <mxGeometry width="50" height="50" relative="1" as="geometry">
            <mxPoint x="240" y="-530" as="sourcePoint" />
            <mxPoint x="180" y="-440" as="targetPoint" />
          </mxGeometry>
        </mxCell>
        <mxCell id="nOZPVLmojF98c1AM6i1F-46" value="" style="endArrow=classic;html=1;exitX=0.5;exitY=1;exitDx=0;exitDy=0;entryX=0.5;entryY=0;entryDx=0;entryDy=0;" parent="1" source="nOZPVLmojF98c1AM6i1F-12" target="nOZPVLmojF98c1AM6i1F-29" edge="1">
          <mxGeometry width="50" height="50" relative="1" as="geometry">
            <mxPoint x="-130" y="-490" as="sourcePoint" />
            <mxPoint x="-80" y="-540" as="targetPoint" />
          </mxGeometry>
        </mxCell>
        <mxCell id="nOZPVLmojF98c1AM6i1F-47" value="" style="endArrow=classic;html=1;exitX=0.5;exitY=1;exitDx=0;exitDy=0;entryX=0.5;entryY=0;entryDx=0;entryDy=0;" parent="1" source="nOZPVLmojF98c1AM6i1F-14" target="nOZPVLmojF98c1AM6i1F-29" edge="1">
          <mxGeometry width="50" height="50" relative="1" as="geometry">
            <mxPoint x="-70" y="-430" as="sourcePoint" />
            <mxPoint x="-20" y="-480" as="targetPoint" />
          </mxGeometry>
        </mxCell>
        <mxCell id="nOZPVLmojF98c1AM6i1F-48" value="" style="endArrow=classic;html=1;exitX=0.5;exitY=1;exitDx=0;exitDy=0;entryX=0.5;entryY=0;entryDx=0;entryDy=0;" parent="1" source="nOZPVLmojF98c1AM6i1F-17" target="nOZPVLmojF98c1AM6i1F-29" edge="1">
          <mxGeometry width="50" height="50" relative="1" as="geometry">
            <mxPoint x="-90" y="-460" as="sourcePoint" />
            <mxPoint x="-40" y="-510" as="targetPoint" />
          </mxGeometry>
        </mxCell>
        <mxCell id="nOZPVLmojF98c1AM6i1F-49" value="" style="endArrow=classic;html=1;exitX=0.5;exitY=1;exitDx=0;exitDy=0;entryX=0.5;entryY=0;entryDx=0;entryDy=0;" parent="1" source="nOZPVLmojF98c1AM6i1F-22" target="nOZPVLmojF98c1AM6i1F-29" edge="1">
          <mxGeometry width="50" height="50" relative="1" as="geometry">
            <mxPoint x="590" y="-440" as="sourcePoint" />
            <mxPoint x="640" y="-490" as="targetPoint" />
          </mxGeometry>
        </mxCell>
        <mxCell id="nOZPVLmojF98c1AM6i1F-50" value="" style="endArrow=classic;html=1;exitX=0.5;exitY=1;exitDx=0;exitDy=0;entryX=0.5;entryY=0;entryDx=0;entryDy=0;" parent="1" source="nOZPVLmojF98c1AM6i1F-24" target="nOZPVLmojF98c1AM6i1F-29" edge="1">
          <mxGeometry width="50" height="50" relative="1" as="geometry">
            <mxPoint x="550" y="-460" as="sourcePoint" />
            <mxPoint x="600" y="-510" as="targetPoint" />
          </mxGeometry>
        </mxCell>
        <mxCell id="nOZPVLmojF98c1AM6i1F-51" value="" style="endArrow=classic;html=1;exitX=0.5;exitY=1;exitDx=0;exitDy=0;entryX=0.5;entryY=0;entryDx=0;entryDy=0;" parent="1" source="nOZPVLmojF98c1AM6i1F-26" target="nOZPVLmojF98c1AM6i1F-29" edge="1">
          <mxGeometry width="50" height="50" relative="1" as="geometry">
            <mxPoint x="570" y="-440" as="sourcePoint" />
            <mxPoint x="620" y="-490" as="targetPoint" />
          </mxGeometry>
        </mxCell>
        <mxCell id="nOZPVLmojF98c1AM6i1F-52" value="" style="endArrow=classic;html=1;exitX=0.5;exitY=1;exitDx=0;exitDy=0;entryX=0.5;entryY=0;entryDx=0;entryDy=0;" parent="1" source="nOZPVLmojF98c1AM6i1F-22" target="nOZPVLmojF98c1AM6i1F-28" edge="1">
          <mxGeometry width="50" height="50" relative="1" as="geometry">
            <mxPoint x="570" y="-430" as="sourcePoint" />
            <mxPoint x="620" y="-480" as="targetPoint" />
          </mxGeometry>
        </mxCell>
        <mxCell id="nOZPVLmojF98c1AM6i1F-53" value="" style="endArrow=classic;html=1;exitX=0.5;exitY=1;exitDx=0;exitDy=0;entryX=0.5;entryY=0;entryDx=0;entryDy=0;" parent="1" source="nOZPVLmojF98c1AM6i1F-24" target="nOZPVLmojF98c1AM6i1F-28" edge="1">
          <mxGeometry width="50" height="50" relative="1" as="geometry">
            <mxPoint x="600" y="-370" as="sourcePoint" />
            <mxPoint x="650" y="-420" as="targetPoint" />
          </mxGeometry>
        </mxCell>
        <mxCell id="nOZPVLmojF98c1AM6i1F-54" value="" style="endArrow=classic;html=1;exitX=0.5;exitY=1;exitDx=0;exitDy=0;entryX=0.5;entryY=0;entryDx=0;entryDy=0;" parent="1" source="nOZPVLmojF98c1AM6i1F-26" target="nOZPVLmojF98c1AM6i1F-28" edge="1">
          <mxGeometry width="50" height="50" relative="1" as="geometry">
            <mxPoint x="620" y="-380" as="sourcePoint" />
            <mxPoint x="670" y="-430" as="targetPoint" />
          </mxGeometry>
        </mxCell>
        <mxCell id="nOZPVLmojF98c1AM6i1F-55" value="用户" style="rounded=0;whiteSpace=wrap;html=1;" parent="1" vertex="1">
          <mxGeometry x="-10" y="-1120" width="120" height="60" as="geometry" />
        </mxCell>
        <mxCell id="nOZPVLmojF98c1AM6i1F-56" value="" style="endArrow=classic;html=1;exitX=0.5;exitY=1;exitDx=0;exitDy=0;" parent="1" source="nOZPVLmojF98c1AM6i1F-55" edge="1">
          <mxGeometry width="50" height="50" relative="1" as="geometry">
            <mxPoint x="60" y="-930" as="sourcePoint" />
            <mxPoint x="50" y="-1000" as="targetPoint" />
          </mxGeometry>
        </mxCell>
        <mxCell id="nOZPVLmojF98c1AM6i1F-57" value="用户" style="rounded=0;whiteSpace=wrap;html=1;" parent="1" vertex="1">
          <mxGeometry x="490" y="-1120" width="120" height="60" as="geometry" />
        </mxCell>
        <mxCell id="nOZPVLmojF98c1AM6i1F-58" value="" style="endArrow=classic;html=1;exitX=0.5;exitY=1;exitDx=0;exitDy=0;" parent="1" source="nOZPVLmojF98c1AM6i1F-57" target="nOZPVLmojF98c1AM6i1F-19" edge="1">
          <mxGeometry width="50" height="50" relative="1" as="geometry">
            <mxPoint x="60" y="-1050" as="sourcePoint" />
            <mxPoint x="60" y="-990" as="targetPoint" />
          </mxGeometry>
        </mxCell>
        <mxCell id="nOZPVLmojF98c1AM6i1F-59" value="用户" style="rounded=0;whiteSpace=wrap;html=1;" parent="1" vertex="1">
          <mxGeometry x="-580" y="-1010" width="120" height="60" as="geometry" />
        </mxCell>
        <mxCell id="nOZPVLmojF98c1AM6i1F-60" value="高防" style="rounded=0;whiteSpace=wrap;html=1;" parent="1" vertex="1">
          <mxGeometry x="-580" y="-880" width="120" height="60" as="geometry" />
        </mxCell>
        <mxCell id="nOZPVLmojF98c1AM6i1F-61" value="聊天室websocket服务" style="rounded=0;whiteSpace=wrap;html=1;" parent="1" vertex="1">
          <mxGeometry x="-580" y="-740" width="120" height="60" as="geometry" />
        </mxCell>
        <mxCell id="nOZPVLmojF98c1AM6i1F-62" value="" style="endArrow=classic;html=1;entryX=0.5;entryY=0;entryDx=0;entryDy=0;exitX=0.5;exitY=1;exitDx=0;exitDy=0;" parent="1" source="nOZPVLmojF98c1AM6i1F-59" target="nOZPVLmojF98c1AM6i1F-60" edge="1">
          <mxGeometry width="50" height="50" relative="1" as="geometry">
            <mxPoint x="-530" y="-940" as="sourcePoint" />
            <mxPoint x="-500" y="-940" as="targetPoint" />
          </mxGeometry>
        </mxCell>
        <mxCell id="nOZPVLmojF98c1AM6i1F-63" value="" style="endArrow=classic;html=1;exitX=0.5;exitY=1;exitDx=0;exitDy=0;entryX=0.5;entryY=0;entryDx=0;entryDy=0;" parent="1" source="nOZPVLmojF98c1AM6i1F-60" target="nOZPVLmojF98c1AM6i1F-61" edge="1">
          <mxGeometry width="50" height="50" relative="1" as="geometry">
            <mxPoint x="-390" y="-740" as="sourcePoint" />
            <mxPoint x="-340" y="-790" as="targetPoint" />
          </mxGeometry>
        </mxCell>
        <mxCell id="nOZPVLmojF98c1AM6i1F-64" value="用户" style="rounded=0;whiteSpace=wrap;html=1;" parent="1" vertex="1">
          <mxGeometry x="-390" y="-1010" width="120" height="60" as="geometry" />
        </mxCell>
        <mxCell id="nOZPVLmojF98c1AM6i1F-65" value="高防" style="rounded=0;whiteSpace=wrap;html=1;" parent="1" vertex="1">
          <mxGeometry x="-390" y="-880" width="120" height="60" as="geometry" />
        </mxCell>
        <mxCell id="nOZPVLmojF98c1AM6i1F-66" value="通知websocket服务" style="rounded=0;whiteSpace=wrap;html=1;" parent="1" vertex="1">
          <mxGeometry x="-390" y="-740" width="120" height="60" as="geometry" />
        </mxCell>
        <mxCell id="nOZPVLmojF98c1AM6i1F-67" value="" style="endArrow=classic;html=1;entryX=0.5;entryY=0;entryDx=0;entryDy=0;exitX=0.5;exitY=1;exitDx=0;exitDy=0;" parent="1" source="nOZPVLmojF98c1AM6i1F-64" target="nOZPVLmojF98c1AM6i1F-65" edge="1">
          <mxGeometry width="50" height="50" relative="1" as="geometry">
            <mxPoint x="-340" y="-940" as="sourcePoint" />
            <mxPoint x="-310" y="-940" as="targetPoint" />
          </mxGeometry>
        </mxCell>
        <mxCell id="nOZPVLmojF98c1AM6i1F-68" value="" style="endArrow=classic;html=1;exitX=0.5;exitY=1;exitDx=0;exitDy=0;entryX=0.5;entryY=0;entryDx=0;entryDy=0;" parent="1" source="nOZPVLmojF98c1AM6i1F-65" target="nOZPVLmojF98c1AM6i1F-66" edge="1">
          <mxGeometry width="50" height="50" relative="1" as="geometry">
            <mxPoint x="-200" y="-740" as="sourcePoint" />
            <mxPoint x="-150" y="-790" as="targetPoint" />
          </mxGeometry>
        </mxCell>
        <mxCell id="nOZPVLmojF98c1AM6i1F-69" value="mysql master" style="rounded=0;whiteSpace=wrap;html=1;" parent="1" vertex="1">
          <mxGeometry x="-550" y="-240" width="120" height="60" as="geometry" />
        </mxCell>
        <mxCell id="nOZPVLmojF98c1AM6i1F-70" value="mysql slave" style="rounded=0;whiteSpace=wrap;html=1;" parent="1" vertex="1">
          <mxGeometry x="-413" y="-240" width="120" height="60" as="geometry" />
        </mxCell>
        <mxCell id="nOZPVLmojF98c1AM6i1F-71" value="" style="endArrow=classic;html=1;exitX=0.5;exitY=1;exitDx=0;exitDy=0;entryX=0.5;entryY=0;entryDx=0;entryDy=0;" parent="1" source="nOZPVLmojF98c1AM6i1F-28" target="nOZPVLmojF98c1AM6i1F-69" edge="1">
          <mxGeometry width="50" height="50" relative="1" as="geometry">
            <mxPoint x="-190" y="-280" as="sourcePoint" />
            <mxPoint x="-140" y="-330" as="targetPoint" />
          </mxGeometry>
        </mxCell>
        <mxCell id="nOZPVLmojF98c1AM6i1F-72" value="" style="endArrow=none;dashed=1;html=1;exitX=0.5;exitY=0;exitDx=0;exitDy=0;entryX=0.5;entryY=1;entryDx=0;entryDy=0;" parent="1" source="nOZPVLmojF98c1AM6i1F-70" target="nOZPVLmojF98c1AM6i1F-28" edge="1">
          <mxGeometry width="50" height="50" relative="1" as="geometry">
            <mxPoint x="130" y="-270" as="sourcePoint" />
            <mxPoint x="-220" y="-350" as="targetPoint" />
          </mxGeometry>
        </mxCell>
        <mxCell id="nOZPVLmojF98c1AM6i1F-73" value="" style="endArrow=classic;html=1;entryX=0.5;entryY=0;entryDx=0;entryDy=0;exitX=0.5;exitY=1;exitDx=0;exitDy=0;" parent="1" source="nOZPVLmojF98c1AM6i1F-66" target="nOZPVLmojF98c1AM6i1F-28" edge="1">
          <mxGeometry width="50" height="50" relative="1" as="geometry">
            <mxPoint x="-370" y="-480" as="sourcePoint" />
            <mxPoint x="-320" y="-530" as="targetPoint" />
          </mxGeometry>
        </mxCell>
        <mxCell id="nOZPVLmojF98c1AM6i1F-74" value="" style="endArrow=classic;html=1;exitX=0.5;exitY=1;exitDx=0;exitDy=0;entryX=0.5;entryY=0;entryDx=0;entryDy=0;" parent="1" source="nOZPVLmojF98c1AM6i1F-61" target="nOZPVLmojF98c1AM6i1F-28" edge="1">
          <mxGeometry width="50" height="50" relative="1" as="geometry">
            <mxPoint x="-320" y="-670" as="sourcePoint" />
            <mxPoint x="-450" y="-460" as="targetPoint" />
          </mxGeometry>
        </mxCell>
        <mxCell id="nOZPVLmojF98c1AM6i1F-76" value="mysql slave" style="rounded=0;whiteSpace=wrap;html=1;" parent="1" vertex="1">
          <mxGeometry x="-270" y="-240" width="120" height="60" as="geometry" />
        </mxCell>
        <mxCell id="nOZPVLmojF98c1AM6i1F-78" value="" style="endArrow=none;dashed=1;html=1;entryX=0.5;entryY=1;entryDx=0;entryDy=0;exitX=0.5;exitY=0;exitDx=0;exitDy=0;" parent="1" source="nOZPVLmojF98c1AM6i1F-76" target="nOZPVLmojF98c1AM6i1F-28" edge="1">
          <mxGeometry width="50" height="50" relative="1" as="geometry">
            <mxPoint x="-160" y="-260" as="sourcePoint" />
            <mxPoint x="-110" y="-310" as="targetPoint" />
          </mxGeometry>
        </mxCell>
        <mxCell id="nOZPVLmojF98c1AM6i1F-79" value="redis master" style="rounded=0;whiteSpace=wrap;html=1;" parent="1" vertex="1">
          <mxGeometry x="-80" y="-240" width="120" height="60" as="geometry" />
        </mxCell>
        <mxCell id="nOZPVLmojF98c1AM6i1F-80" value="redis replicas&amp;nbsp;&lt;span style=&quot;color: rgba(0 , 0 , 0 , 0) ; font-family: monospace ; font-size: 0px&quot;&gt;%3CmxGraphModel%3E%3Croot%3E%3CmxCell%20id%3D%220%22%2F%3E%3CmxCell%20id%3D%221%22%20parent%3D%220%22%2F%3E%3CmxCell%20id%3D%222%22%20value%3D%22mysql%20master%22%20style%3D%22rounded%3D0%3BwhiteSpace%3Dwrap%3Bhtml%3D1%3B%22%20vertex%3D%221%22%20parent%3D%221%22%3E%3CmxGeometry%20x%3D%22-550%22%20y%3D%22-240%22%20width%3D%22120%22%20height%3D%2260%22%20as%3D%22geometry%22%2F%3E%3C%2FmxCell%3E%3CmxCell%20id%3D%223%22%20value%3D%22mysql%20slave%22%20style%3D%22rounded%3D0%3BwhiteSpace%3Dwrap%3Bhtml%3D1%3B%22%20vertex%3D%221%22%20parent%3D%221%22%3E%3CmxGeometry%20x%3D%22-413%22%20y%3D%22-240%22%20width%3D%22120%22%20height%3D%2260%22%20as%3D%22geometry%22%2F%3E%3C%2FmxCell%3E%3CmxCell%20id%3D%224%22%20value%3D%22mysql%20slave%22%20style%3D%22rounded%3D0%3BwhiteSpace%3Dwrap%3Bhtml%3D1%3B%22%20vertex%3D%221%22%20parent%3D%221%22%3E%3CmxGeometry%20x%3D%22-270%22%20y%3D%22-240%22%20width%3D%22120%22%20height%3D%2260%22%20as%3D%22geometry%22%2F%3E%3C%2FmxCell%3E%3C%2Froot%3E%3C%2FmxGraphModel%3E&lt;/span&gt;" style="rounded=0;whiteSpace=wrap;html=1;" parent="1" vertex="1">
          <mxGeometry x="57" y="-240" width="120" height="60" as="geometry" />
        </mxCell>
        <mxCell id="nOZPVLmojF98c1AM6i1F-82" value="" style="endArrow=classic;html=1;exitX=0.5;exitY=1;exitDx=0;exitDy=0;entryX=0.5;entryY=0;entryDx=0;entryDy=0;" parent="1" source="nOZPVLmojF98c1AM6i1F-29" target="nOZPVLmojF98c1AM6i1F-79" edge="1">
          <mxGeometry width="50" height="50" relative="1" as="geometry">
            <mxPoint x="-110" y="-270" as="sourcePoint" />
            <mxPoint x="-60" y="-320" as="targetPoint" />
          </mxGeometry>
        </mxCell>
        <mxCell id="nOZPVLmojF98c1AM6i1F-83" value="" style="endArrow=classic;html=1;exitX=0.5;exitY=1;exitDx=0;exitDy=0;entryX=0.5;entryY=0;entryDx=0;entryDy=0;" parent="1" source="nOZPVLmojF98c1AM6i1F-29" target="nOZPVLmojF98c1AM6i1F-80" edge="1">
          <mxGeometry width="50" height="50" relative="1" as="geometry">
            <mxPoint x="110" y="-260" as="sourcePoint" />
            <mxPoint x="160" y="-310" as="targetPoint" />
          </mxGeometry>
        </mxCell>
        <mxCell id="nOZPVLmojF98c1AM6i1F-84" value="" style="endArrow=classic;html=1;exitX=0.5;exitY=1;exitDx=0;exitDy=0;entryX=0.5;entryY=0;entryDx=0;entryDy=0;" parent="1" source="nOZPVLmojF98c1AM6i1F-61" target="nOZPVLmojF98c1AM6i1F-29" edge="1">
          <mxGeometry width="50" height="50" relative="1" as="geometry">
            <mxPoint x="-620" y="-490" as="sourcePoint" />
            <mxPoint x="-570" y="-540" as="targetPoint" />
          </mxGeometry>
        </mxCell>
        <mxCell id="nOZPVLmojF98c1AM6i1F-85" value="" style="endArrow=classic;html=1;exitX=0.5;exitY=1;exitDx=0;exitDy=0;entryX=0.5;entryY=0;entryDx=0;entryDy=0;" parent="1" source="nOZPVLmojF98c1AM6i1F-66" target="nOZPVLmojF98c1AM6i1F-29" edge="1">
          <mxGeometry width="50" height="50" relative="1" as="geometry">
            <mxPoint x="-660" y="-400" as="sourcePoint" />
            <mxPoint x="-610" y="-450" as="targetPoint" />
          </mxGeometry>
        </mxCell>
      </root>
    </mxGraphModel>
  </diagram>
</mxfile>
